<?xml version="1.0" standalone="no"?>
<!DOCTYPE svg PUBLIC "-//W3C//DTD SVG 20010904//EN"
 "http://www.w3.org/TR/2001/REC-SVG-20010904/DTD/svg10.dtd">
<svg version="1.0" xmlns="http://www.w3.org/2000/svg"
 width="402.000000pt" height="399.000000pt" viewBox="0 0 402.000000 399.000000"
 preserveAspectRatio="xMidYMid meet">

<g transform="translate(0.000000,399.000000) scale(0.100000,-0.100000)"
fill="#000000" stroke="none">
<path d="M3355 3907 c-120 -46 -215 -133 -268 -245 -25 -54 -32 -83 -35 -153
-5 -102 8 -155 73 -294 96 -208 341 -585 379 -585 7 0 42 42 78 93 193 276
324 516 360 662 20 78 21 94 10 158 -26 150 -121 276 -261 345 -69 34 -82 37
-175 39 -85 3 -110 0 -161 -20z m258 -59 c103 -22 213 -126 252 -238 43 -122
26 -225 -70 -420 -50 -100 -217 -371 -252 -408 -7 -8 -18 -22 -24 -33 -14 -27
-26 -17 -104 95 -154 223 -264 437 -291 569 -26 125 20 264 119 353 101 91
214 116 370 82z"/>
<path d="M3424 3671 c-106 -48 -138 -190 -62 -277 35 -39 58 -54 105 -64 88
-20 194 46 209 131 14 84 1 130 -53 181 -54 51 -127 62 -199 29z m152 -77 c39
-29 51 -78 30 -128 -19 -47 -59 -71 -115 -70 -37 1 -49 7 -73 33 -56 62 -25
168 55 189 40 11 64 5 103 -24z"/>
<path d="M2662 2653 c-17 -3 -22 -10 -20 -26 3 -20 10 -22 66 -25 51 -2 63 0
69 14 13 34 -41 51 -115 37z"/>
<path d="M3324 2649 c-36 -10 -59 -33 -49 -49 7 -11 67 -13 103 -4 18 5 22 13
20 33 -3 29 -24 35 -74 20z"/>
<path d="M2343 2586 c-26 -23 -27 -26 -11 -42 16 -16 19 -16 60 1 51 20 68 33
68 51 0 25 -85 18 -117 -10z"/>
<path d="M2960 2590 c0 -26 29 -40 85 -40 33 0 47 4 52 16 10 26 -25 44 -84
44 -46 0 -53 -3 -53 -20z"/>
<path d="M2232 2378 c-19 -19 -16 -127 4 -135 8 -3 20 -1 26 5 16 16 22 96 9
121 -13 24 -22 26 -39 9z"/>
<path d="M1437 2113 c-4 -3 -7 -14 -7 -24 0 -19 28 -29 88 -29 35 0 42 3 42
20 0 10 -9 24 -19 30 -22 11 -94 14 -104 3z"/>
<path d="M2098 2064 c-43 -31 -55 -74 -15 -53 12 7 36 15 52 19 23 4 30 11 30
30 0 34 -23 35 -67 4z"/>
<path d="M1213 2041 c-21 -34 -25 -84 -9 -106 16 -20 16 -20 35 2 26 31 28
123 3 123 -9 0 -22 -8 -29 -19z"/>
<path d="M1746 2015 c-6 -18 19 -45 43 -45 10 0 28 11 40 24 19 21 20 24 6 30
-31 11 -83 6 -89 -9z"/>
<path d="M1855 1980 c-3 -5 -1 -10 4 -10 6 0 11 5 11 10 0 6 -2 10 -4 10 -3 0
-8 -4 -11 -10z"/>
<path d="M1220 1735 c-15 -18 -7 -100 11 -121 31 -37 54 5 43 76 -8 47 -34 69
-54 45z"/>
<path d="M492 1520 c-230 -61 -391 -263 -392 -492 0 -68 33 -195 70 -268 9
-19 23 -48 31 -65 34 -76 129 -241 204 -355 159 -240 195 -281 236 -259 11 6
21 4 29 -6 13 -15 84 -21 114 -9 22 8 20 41 -3 54 -11 5 -38 10 -60 10 -51 0
-53 -6 70 180 238 361 329 560 329 725 0 230 -178 440 -417 490 -88 19 -122
18 -211 -5z m185 -59 c157 -23 290 -128 345 -273 54 -144 35 -277 -69 -483
-92 -182 -318 -530 -344 -530 -14 0 -123 153 -226 320 -138 221 -213 410 -213
534 0 215 151 395 360 430 74 12 76 12 147 2z"/>
<path d="M541 1250 c-49 -21 -100 -71 -117 -115 -52 -138 41 -278 185 -278 62
0 101 16 145 60 121 119 39 331 -131 340 -32 1 -69 -2 -82 -7z m139 -76 c64
-38 83 -146 35 -203 -70 -83 -207 -53 -235 50 -16 60 11 125 65 157 29 17 103
14 135 -4z"/>
<path d="M1293 1415 c-9 -25 4 -96 20 -113 22 -22 47 -8 47 26 0 67 -49 131
-67 87z"/>
<path d="M1420 1125 c-16 -20 -7 -53 28 -94 54 -64 73 -4 22 67 -17 23 -32 42
-34 42 -2 0 -9 -7 -16 -15z"/>
<path d="M1624 878 c-9 -14 47 -65 82 -74 28 -7 61 16 50 35 -10 16 -82 51
-105 51 -11 0 -23 -5 -27 -12z"/>
<path d="M1920 727 c0 -45 120 -77 128 -35 4 20 -63 58 -103 58 -20 0 -25 -5
-25 -23z"/>
<path d="M2156 524 c-10 -39 4 -93 26 -105 16 -8 23 -8 29 2 13 22 11 67 -6
99 -19 37 -41 39 -49 4z"/>
<path d="M1978 269 c-29 -11 -41 -31 -31 -55 13 -34 123 8 131 50 3 13 -4 16
-35 15 -21 0 -50 -5 -65 -10z"/>
<path d="M1640 175 c-22 -27 -4 -45 44 -45 60 0 76 8 76 36 0 22 -4 24 -54 24
-35 0 -58 -5 -66 -15z"/>
<path d="M1322 151 c-8 -4 -12 -17 -10 -27 3 -16 13 -19 68 -19 63 0 65 1 65
25 0 23 -4 25 -55 28 -30 1 -61 -2 -68 -7z"/>
<path d="M1003 134 c-7 -3 -13 -17 -13 -30 0 -24 2 -25 63 -22 59 3 62 4 62
28 0 23 -4 25 -50 27 -27 1 -56 0 -62 -3z"/>
</g>
</svg>
