<?xml version="1.0" standalone="no"?>
<!DOCTYPE svg PUBLIC "-//W3C//DTD SVG 20010904//EN"
 "http://www.w3.org/TR/2001/REC-SVG-20010904/DTD/svg10.dtd">
<svg version="1.0" xmlns="http://www.w3.org/2000/svg"
 width="417.000000pt" height="416.000000pt" viewBox="0 0 417.000000 416.000000"
 preserveAspectRatio="xMidYMid meet">

<g transform="translate(0.000000,416.000000) scale(0.100000,-0.100000)"
fill="#000000" stroke="none">
<path d="M1824 4140 c-40 -5 -123 -21 -185 -35 -715 -161 -1297 -687 -1523
-1376 -75 -230 -106 -415 -106 -647 0 -325 66 -613 210 -907 113 -233 236
-402 426 -585 293 -282 631 -462 1026 -546 103 -21 159 -27 342 -31 255 -7
371 4 561 52 161 40 298 91 435 161 601 306 1008 859 1121 1521 27 161 30 470
5 629 -96 621 -444 1143 -984 1477 -209 129 -402 205 -677 264 -105 22 -148
26 -350 28 -126 2 -262 0 -301 -5z m501 -865 c153 -43 326 -146 432 -259 164
-172 249 -369 260 -601 11 -224 -49 -424 -180 -603 -56 -77 -182 -198 -243
-233 -68 -38 -74 -49 -30 -49 54 0 263 -28 341 -46 189 -43 318 -106 369 -181
21 -30 26 -50 26 -96 0 -69 -15 -101 -69 -150 -150 -136 -509 -197 -1151 -197
-475 0 -780 33 -980 105 -166 61 -240 136 -240 244 0 111 112 200 320 256 93
25 349 65 416 65 19 0 34 3 34 8 0 4 -22 20 -50 35 -65 36 -210 174 -265 251
-117 167 -169 335 -169 551 0 150 25 258 93 400 122 255 364 447 642 510 88
20 360 14 444 -10z"/>
<path d="M1930 3206 c-206 -44 -366 -136 -496 -288 -211 -245 -262 -576 -136
-884 68 -168 208 -323 377 -418 28 -16 125 -102 221 -197 94 -93 176 -169 184
-169 8 0 90 76 184 168 97 96 193 181 221 197 185 104 324 265 395 457 54 148
67 319 35 472 -27 129 -95 267 -182 370 -107 127 -255 223 -418 271 -111 33
-285 42 -385 21z m375 -96 c380 -120 608 -489 541 -876 -36 -203 -162 -400
-324 -507 -133 -88 -244 -126 -397 -134 -149 -8 -247 12 -380 77 -276 134
-438 392 -437 695 0 127 22 229 72 330 107 217 289 367 516 425 108 27 305 22
409 -10z"/>
<path d="M1985 3049 c-268 -39 -489 -234 -571 -504 -25 -84 -25 -277 0 -360
75 -245 261 -427 504 -490 67 -18 236 -21 307 -5 180 38 352 161 444 317 229
388 48 874 -379 1016 -48 16 -185 38 -223 36 -12 -1 -49 -5 -82 -10z m417
-160 c26 -7 46 -22 63 -47 21 -31 25 -48 25 -114 l0 -78 39 0 c31 0 44 -6 60
-26 18 -23 21 -41 21 -119 0 -83 -2 -94 -24 -114 -13 -12 -40 -24 -60 -28
l-36 -6 0 -156 c0 -136 -2 -160 -19 -188 -11 -17 -28 -34 -39 -37 -13 -5 -22
-19 -26 -44 -3 -24 -17 -49 -36 -67 -26 -25 -38 -29 -85 -29 -46 0 -59 4 -84
28 -16 15 -32 43 -36 62 l-6 34 -78 0 -79 0 -6 -34 c-14 -72 -96 -113 -169
-82 -39 16 -62 44 -73 91 -4 16 -18 38 -32 49 -43 34 -52 73 -52 229 l0 144
-36 6 c-20 4 -47 16 -60 28 -22 20 -24 31 -24 114 0 84 2 94 25 119 17 19 34
26 60 26 l35 0 0 71 c0 101 30 155 95 172 40 10 600 7 637 -4z"/>
<path d="M1772 2798 c-7 -7 -12 -34 -12 -60 l0 -48 326 0 327 0 -5 51 c-3 28
-12 55 -19 60 -23 14 -603 11 -617 -3z"/>
<path d="M1760 2510 l0 -100 325 0 325 0 0 100 0 100 -325 0 -325 0 0 -100z"/>
<path d="M1630 2510 c0 -53 2 -60 20 -60 18 0 20 7 20 60 0 53 -2 60 -20 60
-18 0 -20 -7 -20 -60z"/>
<path d="M2490 2510 c0 -53 2 -60 20 -60 18 0 20 7 20 60 0 53 -2 60 -20 60
-18 0 -20 -7 -20 -60z"/>
<path d="M1760 2192 c0 -86 4 -132 12 -140 9 -9 91 -12 309 -12 359 0 329 -15
329 162 l0 118 -325 0 -325 0 0 -128z m154 -14 c15 -24 -3 -52 -37 -56 -33 -4
-53 28 -37 59 14 25 58 23 74 -3z m410 0 c15 -25 -3 -52 -37 -56 -34 -4 -58
38 -37 63 17 20 59 16 74 -7z"/>
<path d="M1840 1946 c0 -30 55 -35 70 -6 10 18 8 20 -30 20 -27 0 -40 -4 -40
-14z"/>
<path d="M2252 1943 c2 -12 13 -18 33 -18 20 0 31 6 33 18 3 14 -4 17 -33 17
-29 0 -36 -3 -33 -17z"/>
<path d="M1570 1443 c-316 -32 -526 -95 -598 -178 -28 -31 -33 -43 -28 -69 9
-45 36 -77 92 -108 99 -56 271 -97 517 -125 216 -24 838 -24 1054 0 325 37
524 98 587 180 64 84 5 158 -171 218 -128 44 -407 89 -548 89 -56 0 -64 -3
-94 -34 l-33 -34 88 -7 c221 -17 422 -66 475 -116 69 -65 3 -145 -148 -180
-153 -34 -487 -69 -533 -54 -28 9 -35 43 -14 66 14 15 31 19 84 19 154 0 423
40 507 75 33 14 36 18 21 26 -57 32 -223 62 -437 78 l-124 10 -69 -64 c-61
-58 -73 -65 -109 -65 -52 0 -72 11 -139 76 l-55 53 -130 -10 c-166 -13 -292
-33 -380 -60 -62 -19 -67 -22 -51 -34 44 -33 266 -72 464 -81 138 -7 162 -15
162 -53 0 -37 -24 -44 -132 -37 -237 15 -404 41 -495 78 -55 21 -113 76 -113
106 0 25 47 67 100 91 77 33 353 81 473 81 19 0 17 4 -13 35 -33 34 -36 35
-104 33 -39 0 -87 -3 -106 -5z m545 -383 c0 -29 -4 -36 -23 -38 -43 -6 -69 37
-40 66 7 7 24 12 38 10 21 -3 25 -8 25 -38z"/>
</g>
</svg>
